<svg xmlns="http://www.w3.org/2000/svg" version="1.1" xmlns:xlink="http://www.w3.org/1999/xlink" xmlns:svgjs="http://svgjs.dev/svgjs" width="100%" height="100%" viewBox="0 0 1000 600"><rect width="1000" height="600" x="0" y="0" fill="#0d6efd"/><g><rect width="333.3333333333333" height="333.3333333333333" rx="13.333333333333334" ry="13.333333333333334" y="157.41838034199435" fill="#ffffff" transform="matrix(0.9245822995299248,0,0,0.9245822995299244,0,0.3566689433810808)" x="135.19618225097656"/><path d="M257.57339244373793 399.08504553874525L257.57339244373793 399.08504553874525Q253.4846540580333 399.08504553874525 251.33582804510826 397.89125330934246Q249.18700203218324 396.7273058856747 248.64979552895198 394.4591006498094Q248.11258902572072 392.2207402196791 248.11258902572072 389.20641484043705L248.11258902572072 389.20641484043705L248.11258902572072 258.5458553323008Q248.11258902572072 255.77028839893924 248.85870916909747 253.71099680321942Q249.6346741182093 251.68155001323464 251.66412090819404 250.39822336662664Q253.6935676981788 249.08505191428355 257.7823060838834 249.08505191428355L257.7823060838834 249.08505191428355L305.2653920083797 249.08505191428355Q315.8006084328594 249.08505191428355 324.51529170749984 252.2187565164659Q333.2001301764052 255.32261631291317 339.6466082151803 261.35126707139733Q346.09308625395545 267.35007302414635 349.6446181364288 276.4825835790778Q353.1961500189021 285.6150941340092 353.1961500189021 297.6723956509775L353.1961500189021 297.6723956509775Q353.1961500189021 305.1932866962151 350.8384103658316 313.251384244684Q348.480670712761 321.3094817931529 343.6458121836797 328.3827007523645Q338.81095365459834 335.4857645173111 331.29006260936075 340.20124382345216Q323.7691715641231 344.9465679353283 313.0250414994979 345.57330885576476L313.0250414994979 345.57330885576476L267.4520231420461 345.57330885576476L267.4520231420461 389.4153284805825Q267.4520231420461 392.4296538598246 266.70590299866933 394.57847987274965Q265.9597828552926 396.7273058856747 263.90049125957273 397.89125330934246Q261.87104446958796 399.08504553874525 257.57339244373793 399.08504553874525ZM349.763997359369 396.7273058856747L349.763997359369 396.7273058856747Q345.25743169337346 399.7416312649168 342.1237270911911 398.6672182584542Q339.01986729474385 397.59280525199176 336.2144555556473 393.5040668662872L336.2144555556473 393.5040668662872L301.83323934884663 338.50008989655316L323.11258583795154 335.27685087716566L352.7783227386111 382.55102316151647Q354.92714875153615 385.9831758210495 355.4643552547674 388.34091547412004Q356.0015617579986 390.6986551271906 354.5988558884504 392.6385674999701Q353.1961500189021 394.57847987274965 349.763997359369 396.7273058856747ZM267.4520231420461 268.66324447648947L267.4520231420461 326.6815468254655L310.01071612025584 326.6815468254655Q314.9351090665424 326.6815468254655 319.2327610923925 324.83116886989114Q323.5304131182425 323.0106357200519 326.75365213763007 319.36956942037335Q329.97689115701763 315.69865831495974 331.9168035297972 310.32659328264714Q333.85671590257675 304.95452825033453 333.85671590257675 297.4336372050969L333.85671590257675 297.4336372050969Q333.85671590257675 288.2115922329603 330.5140976602489 281.7651141941852Q327.2013242236561 275.3186361554101 320.754846184881 271.9760179130823Q314.3083681461059 268.66324447648947 304.84756472808874 268.66324447648947L304.84756472808874 268.66324447648947L267.4520231420461 268.66324447648947Z " fill="#0d6efd" transform="matrix(0.9245822995299248,0,0,0.9245822995299244,0,0.3566689433810808)"/><path d="M561.2821333099732 398.42672085960396L561.2821333099732 398.42672085960396Q557.2113399152408 398.42672085960396 555.0719448464764 397.2381680436238Q552.932549777712 396.079329048043 552.3977010105209 393.82107869768055Q551.8628522433298 391.59254216771757 551.8628522433298 388.59144630736745L551.8628522433298 388.59144630736745L551.8628522433298 258.50434059832946Q551.8628522433298 255.7409553011754 552.6056977533174 253.69070169360947Q553.3782570837045 251.67016190644307 555.398796870871 250.3924676292643Q557.4193366580374 249.08505953168603 561.4901300527697 249.08505953168603L561.4901300527697 249.08505953168603L608.7648183083841 249.08505953168603Q619.2537969094097 249.08505953168603 627.9302324660655 252.20501067363418Q636.5769542023218 255.29524799518282 642.9951394086152 261.29743971588306Q649.4133246149084 267.26991761618376 652.9492692424498 276.36234665843267Q656.485213869991 285.4547757006816 656.485213869991 297.45915914208206L656.485213869991 297.45915914208206Q656.485213869991 304.9470418827576 654.13782205843 312.96977339062425Q651.7904302468689 320.99250489849095 646.976791342149 328.0346803331739Q642.163152437429 335.1065695882564 634.6752696967535 339.80135321137834Q627.187386956078 344.52585065489984 616.4904116122557 345.14984088328947L616.4904116122557 345.14984088328947L571.1174078622098 345.14984088328947L571.1174078622098 388.799443050164Q571.1174078622098 391.8005389105141 570.374562352222 393.9399339792785Q569.6317168422345 396.079329048043 567.5814632346685 397.2381680436238Q565.5609234475021 398.42672085960396 561.2821333099732 398.42672085960396ZM653.0681245240478 396.079329048043L653.0681245240478 396.079329048043Q648.5813376437223 399.0804249083931 645.4613865017741 398.0107273740109Q642.3711491802255 396.9410298396287 639.578050062672 392.87023644489636L639.578050062672 392.87023644489636L605.3477289624409 338.1076654486065L626.5336829072887 334.89857284545985L656.0692203843979 381.9652643582776Q658.2086154531623 385.3823537042208 658.7434642203534 387.7297455157818Q659.2783129875445 390.0771373273427 657.8817634287677 392.0085356533107Q656.485213869991 393.9399339792785 653.0681245240478 396.079329048043ZM571.1174078622098 268.5773257137621L571.1174078622098 326.340992570402L613.4893157519056 326.340992570402Q618.392096117824 326.340992570402 622.6708862553529 324.49873570563267Q626.9496763928819 322.6861926612628 630.1587689960285 319.06110657252304Q633.3678615991752 315.4063066633838 635.299259925143 310.0578189914727Q637.230658251111 304.70933131956156 637.230658251111 297.221448578886L637.230658251111 297.221448578886Q637.230658251111 288.0398780754386 633.9027103663663 281.62169286914525Q630.6044763020211 275.20350766285196 624.1862910957277 271.87555977810723Q617.7681058894344 268.5773257137621 608.3488248227909 268.5773257137621L608.3488248227909 268.5773257137621L571.1174078622098 268.5773257137621ZM753.173985449984 255.08725125238627L815.2164424441529 384.72864965543164Q816.9398440273243 387.9377422585783 817.0586993089222 390.1959926089408Q817.1478407701208 392.4245291389037 815.6621497501454 394.26678600367313Q814.1467449097705 396.079329048043 810.9376523066239 397.5650200680183L810.9376523066239 397.5650200680183Q805.8268751979089 399.9124118795793 802.9149207987573 398.63471760240054Q800.0326802200052 397.3570233252218 797.6852884084442 392.4245291389037L797.6852884084442 392.4245291389037L744.2004116893331 278.62059700879513L691.1315284558151 392.2165323961072Q688.7841366442541 397.1490265824252 685.901896065502 398.42672085960396Q683.0196554867499 399.70441513678276 677.6711678148389 397.3570233252218L677.6711678148389 397.3570233252218Q674.4620752116922 396.079329048043 673.0655256529154 394.1479307220751Q671.6689760941387 392.2165323961072 671.9958281185332 389.45314709895314Q672.3226801429278 386.66004798139954 674.0163679056996 383.0349618926598L674.0163679056996 383.0349618926598L735.4348346714788 254.8792545095897Q736.7125289486576 252.2941521348327 739.1787760418166 250.68960583325935Q741.6450231349756 249.08505953168603 744.4084084321297 249.08505953168603L744.4084084321297 249.08505953168603Q746.3398067580976 249.08505953168603 748.0632083412689 249.73876358047517Q749.7568961040407 250.3924676292643 751.0345903812196 251.67016190644307Q752.3419984787978 252.9478561836218 753.173985449984 255.08725125238627L753.173985449984 255.08725125238627ZM784.640921253061 355.8468162271117L703.9678988684018 355.8468162271117L711.2477848662808 339.38535972578524L777.5690319979786 339.38535972578524L784.640921253061 355.8468162271117ZM902.9316402634951 398.42672085960396L840.889183269326 398.42672085960396Q837.05610043779 398.42672085960396 835.005846830224 397.0301713008272Q832.9853070430576 395.6336217420504 832.3316029942683 392.95937790609486Q831.7076127658788 390.2851340701393 831.7076127658788 387.07604146699265L831.7076127658788 387.07604146699265L831.7076127658788 260.0197454387043Q831.7076127658788 256.8106528355577 832.4504582758665 254.3444057423986Q833.193303785854 251.8781586492396 835.24355739342 250.48160909046283Q837.2640971805864 249.08505953168603 841.1268938325222 249.08505953168603L841.1268938325222 249.08505953168603L900.7922451947305 249.08505953168603Q912.796628636131 249.08505953168603 921.88905767838 254.43354720359713Q930.9814867206288 259.78203487550826 936.0922638293439 268.99331919935514Q941.2327547584584 278.2046035232021 941.0247580156619 289.1095756098208L941.0247580156619 289.1095756098208Q941.2327547584584 294.66606002452846 939.7470637384831 300.0145476964396Q938.2316588981083 305.3630353683507 935.3494183193562 309.96867753027414Q932.4671777406041 314.5743196921976 928.1883876030753 317.54570173214825L928.1883876030753 317.54570173214825Q933.9528687605795 321.2005016412875 938.0236621553119 326.96498279879165Q942.0944555500442 332.75917777669537 944.2338506188086 339.80135321137834Q946.3732456875731 346.87324246646085 946.3732456875731 354.5691219499329L946.3732456875731 354.5691219499329Q946.1652489447764 363.7804062737798 942.9561563416298 371.80313778164646Q939.7470637384831 379.82586928951315 933.744872017783 385.79834718981385Q927.7723941174821 391.8005389105141 919.838804070814 395.09877297485934Q911.9349278445454 398.42672085960396 902.9316402634951 398.42672085960396L902.9316402634951 398.42672085960396ZM850.9621683847587 267.7156249221764L850.9621683847587 380.0338660323097L900.7922451947305 380.0338660323097Q909.1418287269918 380.0338660323097 915.1440204476921 376.82477342916303Q921.1164983479929 373.61568082601633 924.3255909511394 367.40549236251957Q927.5346835542861 361.19530389902275 927.5346835542861 352.2217301383719L927.5346835542861 352.2217301383719Q927.5346835542861 344.52585065489984 925.3952884855217 339.80135321137834Q923.2558934167573 335.1065695882564 919.6308073280176 332.64032249509734Q916.0057212392777 330.17407540193835 911.8160725629474 329.10437786755614Q907.6561377070165 328.0346803331739 903.7041995938822 327.9455388719754Q899.7225476603484 327.82668359037734 896.5134550572017 327.82668359037734L896.5134550572017 327.82668359037734L883.4690879018184 327.82668359037734Q879.1902977642897 327.82668359037734 877.2588994383217 325.6872885216129Q875.3572149327533 323.5478934528485 875.3572149327533 318.85310982972646L875.3572149327533 318.85310982972646Q875.3572149327533 314.33660912900154 877.3777547199197 312.4349246234332Q879.3982945070861 310.50352629746527 883.6770846446151 310.50352629746527L883.6770846446151 310.50352629746527L896.7511656203977 310.50352629746527Q900.1682549663409 310.50352629746527 904.4470451038698 310.29552955466875Q908.7258352413987 310.0578189914727 912.8857700973296 308.57212797149737Q917.07541877366 307.08643695152205 919.7496626096155 302.8967882751917Q922.4239064455711 298.73685341926085 922.4239064455711 291.0409739357887L922.4239064455711 291.0409739357887Q922.4239064455711 279.03659049438824 916.0057212392777 273.39096461848203Q909.5875360329844 267.7156249221764 894.8197672944299 267.7156249221764L894.8197672944299 267.7156249221764L850.9621683847587 267.7156249221764Z " fill="#ffffff" transform="matrix(0.9245822995299248,0,0,0.9245822995299244,0,0.3566689433810808)"/></g></svg>